<svg xmlns="http://www.w3.org/2000/svg" xmlns:xlink="http://www.w3.org/1999/xlink" version="1.1" x="0px" y="0px" viewBox="0 0 1000 1250" style="enable-background:new 0 0 1000 1000;" xml:space="preserve"><style type="text/css">
	.st0{stroke:#B4B4B5;stroke-miterlimit:10;}
</style><polygon class="st0" points="328.6,100.5 328.5,100.1 328.1,100.6 134.7,393.5 254.5,358.5 320.6,584.1 446.3,547.7 400,485.1   435.1,434.9 416.9,367.8 470,432.9 447.9,482.2 541,520 595.4,503.6 529.4,278 648.9,243 "/><path d="M14.7,693l514.4-141l-74.5,119.6l65,101.7L465,849l76,60l-19.9-68.4l78-67.3l-37.5-121.7l121.3-105l305.7,145  c7,3.3,11.4,10.3,11.4,18.1V925c0,41.4-33.6,75-75,75H75c-41.4,0-75-33.6-75-75V712.3C0,703.2,6,695.3,14.7,693z"/><text x="0" y="1015" fill="#000000" font-size="5px" font-weight="bold" font-family="'Helvetica Neue', Helvetica, Arial-Unicode, Arial, Sans-serif">Created by Yang LIU</text><text x="0" y="1020" fill="#000000" font-size="5px" font-weight="bold" font-family="'Helvetica Neue', Helvetica, Arial-Unicode, Arial, Sans-serif">from the Noun Project</text></svg>