<svg xmlns="http://www.w3.org/2000/svg" viewBox="0 0 100 125" x="0px" y="0px"><title>Artboard 78</title><g data-name="Layer 2"><path d="M27.47,31.34a3.31973,3.31973,0,0,0-3.22,2.47l-3.4,12.68a5.98955,5.98955,0,0,0-.19,1.5,5.77822,5.77822,0,0,0,4.28,5.58L29,38.42V31.34Zm.22,35.83L16.94,59.65a4.12692,4.12692,0,0,0-5.76,1.02L8.8,64.06,26.64,76.54a4.07653,4.07653,0,0,0,2.36.75V64.91ZM23.77,33.69a3.82109,3.82109,0,0,1,3.7-2.85H29V9.5a.40618.40618,0,0,0-.04-.19c-.01-.02-.02-.03-.03-.05a.359.359,0,0,0-.07-.1c-.01-.02-.04-.03-.05-.05l-.09-.06c-.03-.01-.06-.01-.08-.02A.48744.48744,0,0,1,28.57,9l-22-3a.57632.57632,0,0,0-.4.12A.51658.51658,0,0,0,6,6.5v87a.51668.51668,0,0,0,.17.38A.4974.4974,0,0,0,6.5,94a.19511.19511,0,0,0,.07-.01l22-3a.25433.25433,0,0,0,.07-.02c.02-.01.05-.01.08-.02l.09-.06c.01-.02.04-.03.05-.05a.35871.35871,0,0,0,.07-.1c.01-.02.02-.03.03-.05A.40618.40618,0,0,0,29,90.5V77.79a4.52966,4.52966,0,0,1-2.64-.84L8.52,64.47a.49172.49172,0,0,1-.21-.33A.53546.53546,0,0,1,8.39,63.77l2.38-3.39a4.63453,4.63453,0,0,1,6.46-1.14l10.3,7.21L29,63.91V40.34L25.42,53.7a.57009.57009,0,0,1-.23.3.59027.59027,0,0,1-.25.07.50617.50617,0,0,1-.13-.02,6.28983,6.28983,0,0,1-4.65-6.06,6.39308,6.39308,0,0,1,.21-1.63ZM21.13,91,7,92.93V91ZM7,9V7.07L21.13,9Z"/><path d="M94.35352,49.64648a.49982.49982,0,0,1,0,.707l-11,11a.49982.49982,0,0,1-.707,0l-3.90039-3.89746a.49982.49982,0,0,1,0-.707l3.499-3.499H74.75a.49971.49971,0,0,1-.5-.5v-5.5a.49971.49971,0,0,1,.5-.5h7.49414l-3.498-3.49609a.49982.49982,0,0,1,0-.707l3.90039-3.90039a.49982.49982,0,0,1,.707,0Z"/><path d="M57.5937,23.8a6.25448,6.25448,0,1,1-5.68557-6.77579A6.25448,6.25448,0,0,1,57.5937,23.8Z"/><path d="M58.54443,91.86527l-3.74616,1.744a4.13367,4.13367,0,0,1-5.49916-2.00212l-11.47-24.55045v-.00891L41.93127,59.947a6.81909,6.81909,0,0,0,1.228-1.02333Z"/><path d="M74.25,35.19182a5.753,5.753,0,0,1-2.892,5.00086L59.95038,46.79522a3.259,3.259,0,0,1-3.933-.51612L47.36813,37.621a.22091.22091,0,1,0-.31142.31147l3.44365,3.46141c-1.901,4.554-4.791,11.09433-6.19326,14.86912a6.98,6.98,0,0,1-1.32585,2.21565A7.74479,7.74479,0,0,1,41.602,59.63548L32.60584,75.22539a4.14091,4.14091,0,0,1-5.96189,1.31694L8.80281,64.058l2.37584-3.39026a4.12955,4.12955,0,0,1,5.7661-1.01442l10.74919,7.5191,5.13435-8.88057a6.69636,6.69636,0,0,1-1.17459-6.62921s3.95977-10.767,5.99746-14.5488h-.00891a21.5632,21.5632,0,0,1,2.2513-3.5949c.258-.18688-.03336-.56564-.29144-.37881A22.83642,22.83642,0,0,0,37.11061,37.091l-7.76159.02285-4.41354,16.453a5.78076,5.78076,0,0,1-4.08436-7.07413L24.2503,33.81259a3.32511,3.32511,0,0,1,3.22119-2.47376h12.164a31.55868,31.55868,0,0,1,5.9708.4271c2.39365.40044,4.3602.95213,4.3602.95213a3.41638,3.41638,0,0,1,1.4771.81869c.02672.02667,7.28773,7.28773,7.28773,7.28773l14.74453-8.51571A5.7491,5.7491,0,0,1,74.25,35.19182Z"/></g><text x="0" y="115" fill="#000000" font-size="5px" font-weight="bold" font-family="'Helvetica Neue', Helvetica, Arial-Unicode, Arial, Sans-serif">Created by Fatahillah</text><text x="0" y="120" fill="#000000" font-size="5px" font-weight="bold" font-family="'Helvetica Neue', Helvetica, Arial-Unicode, Arial, Sans-serif">from the Noun Project</text></svg>