<svg xmlns="http://www.w3.org/2000/svg" data-name="Layer 1" viewBox="0 0 100 125" x="0px" y="0px"><title>Artboard 9</title><path d="M64.28,18.66A16.11,16.11,0,1,1,48.18,2.56,16.11,16.11,0,0,1,64.28,18.66ZM11.77,38.9A44.53,44.53,0,0,0,27,53.49l.19.1,1.51,26.06A3.55,3.55,0,0,0,32.26,83H46.89a24.15,24.15,0,0,1,5.19-12c5.71-7.12,8.11-12.68,8-15a9.53,9.53,0,0,1,14.1-9c.81.44,1.59.91,2.34,1.39a44.45,44.45,0,0,0,8.1-9.43,43.66,43.66,0,0,0,6.47-19.81,42,42,0,0,0-1.18-13.3,6.46,6.46,0,0,0-9.45-3.95,6.67,6.67,0,0,0-3.13,7,28.68,28.68,0,0,1,.14,8.91,29.38,29.38,0,0,1-5.19,12.88A29.12,29.12,0,0,1,61.79,39.4,30.94,30.94,0,0,1,48.18,43,30.94,30.94,0,0,1,34.57,39.4a29.12,29.12,0,0,1-10.46-8.74,29.38,29.38,0,0,1-5.19-12.88,28.68,28.68,0,0,1,.14-8.91,6.67,6.67,0,0,0-3.13-7A6.46,6.46,0,0,0,6.48,5.79,42,42,0,0,0,5.3,19.09,43.66,43.66,0,0,0,11.77,38.9ZM81.18,99c17.55-2.74,14.05-17.58,11.55-24.21a1.54,1.54,0,0,0-1.45-1,1.52,1.52,0,0,0-1.27.68,16.63,16.63,0,0,1-6.41,5.46c1.82-16.48-8.38-23.29-13.29-26A1.54,1.54,0,0,0,68,55.43c.44,6.84-6,15.89-9.71,20.56a15.84,15.84,0,0,0-3.55,11.47c1,9.61,10.38,11.22,13.48,11.48h.06a.72.72,0,0,0,.71-.8A15.64,15.64,0,0,1,74,85a1.14,1.14,0,0,1,1.56,0A15.64,15.64,0,0,1,80.46,98.2.72.72,0,0,0,81.18,99Z"/><text x="0" y="115" fill="#000000" font-size="5px" font-weight="bold" font-family="'Helvetica Neue', Helvetica, Arial-Unicode, Arial, Sans-serif">Created by Gregor Cresnar</text><text x="0" y="120" fill="#000000" font-size="5px" font-weight="bold" font-family="'Helvetica Neue', Helvetica, Arial-Unicode, Arial, Sans-serif">from the Noun Project</text></svg>