<svg xmlns="http://www.w3.org/2000/svg" xmlns:xlink="http://www.w3.org/1999/xlink" version="1.2" baseProfile="tiny" x="0px" y="0px" viewBox="0 0 100 125" xml:space="preserve"><path d="M5,25h11.531l6.667,20h53.604l6.667-20H95V5H5V25z M67.118,30h9.414l-2.5,7.5h-8.164L67.118,30z M57.063,30h4.987   l-1.25,7.5H52.5v-2.938C54.625,33.808,56.308,32.125,57.063,30z M50,25c1.378,0,2.5,1.122,2.5,2.5S51.378,30,50,30   s-2.5-1.122-2.5-2.5S48.622,25,50,25z M42.938,30c0.755,2.125,2.438,3.808,4.563,4.563V37.5h-8.299l-1.25-7.5H42.938z M32.882,30   l1.25,7.5h-8.164l-2.5-7.5H32.882z"/><path d="M51.768,53.232c5.799,5.8,5.799,15.236,0,21.036c-1.863,1.863-2.889,4.342-2.889,6.982s1.026,5.12,2.889,6.982l3.535-3.536   c-0.918-0.918-1.424-2.142-1.424-3.446s0.506-2.528,1.425-3.447c7.748-7.749,7.748-20.357,0-28.106L51.768,53.232z"/><path d="M48.232,70.732c1.863-1.863,2.889-4.342,2.889-6.982s-1.026-5.12-2.889-6.982l-3.535,3.536   c0.918,0.918,1.424,2.142,1.424,3.446s-0.506,2.528-1.425,3.447c-7.748,7.749-7.748,20.357,0,28.106l3.536-3.535   C42.433,85.968,42.433,76.532,48.232,70.732z"/><text x="0" y="115" fill="#000000" font-size="5px" font-weight="bold" font-family="'Helvetica Neue', Helvetica, Arial-Unicode, Arial, Sans-serif">Created by Arthur Shlain</text><text x="0" y="120" fill="#000000" font-size="5px" font-weight="bold" font-family="'Helvetica Neue', Helvetica, Arial-Unicode, Arial, Sans-serif">from the Noun Project</text></svg>