<svg xmlns="http://www.w3.org/2000/svg" xmlns:xlink="http://www.w3.org/1999/xlink" version="1.1" x="0px" y="0px" viewBox="0 0 100 125" style="enable-background:new 0 0 100 100;" xml:space="preserve"><style type="text/css">
	.st0{fill:none;stroke:#000000;stroke-width:2;stroke-linecap:round;stroke-linejoin:round;stroke-miterlimit:10;}
	.st1{fill:none;stroke:#000000;stroke-width:2;stroke-miterlimit:10;}
</style><path d="M89.1,31.4H75.2c2.3-1.5,3.8-4.2,3.8-7.2c0-4.4-7-13.1-7.8-14.1c-0.4-0.5-1.2-0.5-1.5,0c-0.8,1-7.8,9.6-7.8,14.1  c0,3,1.5,5.6,3.8,7.2H53.5V10.9c0-0.6-0.4-1-1-1H11.1c-0.6,0-1,0.4-1,1v78c0,0.6,0.4,1,1,1h78c0.6,0,1-0.4,1-1V32.4  C90.1,31.9,89.7,31.4,89.1,31.4z M36.2,87.9H26V74.1h10.2V87.9z M51.5,87.9H38.2V73.1c0-0.6-0.4-1-1-1H25c-0.6,0-1,0.4-1,1v14.7  H12.1v-76h39.3V87.9z M67.4,27.9c0-1.1,1.5-3.5,3-5.3c1.4,1.9,3,4.3,3,5.3c0,1.6-1.3,2.9-2.9,2.9c-0.1,0-0.1,0-0.2,0  C68.6,30.8,67.4,29.5,67.4,27.9z M63.8,24.3c0-2.8,4.2-8.8,6.6-11.8c2.4,3,6.6,9,6.6,11.8c0,1.8-0.7,3.4-1.9,4.6  c0.1-0.3,0.1-0.6,0.1-0.9c0-2.4-3.5-6.8-4.2-7.6c-0.4-0.5-1.2-0.5-1.5,0c-0.7,0.8-4.2,5.2-4.2,7.6c0,0.2,0,0.4,0.1,0.7  C64.4,27.4,63.8,25.9,63.8,24.3z M75.5,87.9H65.3V74.1h10.2V87.9z M88.1,87.9H77.5V73.1c0-0.6-0.4-1-1-1H64.3c-0.6,0-1,0.4-1,1v14.7  h-9.9V33.4h34.7V87.9z"/><path d="M20.1,36.3h7.4c0.6,0,1-0.4,1-1V27c0-0.6-0.4-1-1-1h-7.4c-0.6,0-1,0.4-1,1v8.3C19.1,35.9,19.5,36.3,20.1,36.3z M21.1,28h5.4  v6.3h-5.4V28z"/><path d="M35.6,36.3H43c0.6,0,1-0.4,1-1V27c0-0.6-0.4-1-1-1h-7.4c-0.6,0-1,0.4-1,1v8.3C34.6,35.9,35,36.3,35.6,36.3z M36.6,28H42v6.3  h-5.4V28z"/><path d="M20.1,51.5h7.4c0.6,0,1-0.4,1-1v-8.3c0-0.6-0.4-1-1-1h-7.4c-0.6,0-1,0.4-1,1v8.3C19.1,51.1,19.5,51.5,20.1,51.5z M21.1,43.2  h5.4v6.3h-5.4V43.2z"/><path d="M35.6,51.5H43c0.6,0,1-0.4,1-1v-8.3c0-0.6-0.4-1-1-1h-7.4c-0.6,0-1,0.4-1,1v8.3C34.6,51.1,35,51.5,35.6,51.5z M36.6,43.2H42  v6.3h-5.4V43.2z"/><path d="M20.1,66.7h7.4c0.6,0,1-0.4,1-1v-8.3c0-0.6-0.4-1-1-1h-7.4c-0.6,0-1,0.4-1,1v8.3C19.1,66.3,19.5,66.7,20.1,66.7z M21.1,58.5  h5.4v6.3h-5.4V58.5z"/><path d="M35.6,66.7H43c0.6,0,1-0.4,1-1v-8.3c0-0.6-0.4-1-1-1h-7.4c-0.6,0-1,0.4-1,1v8.3C34.6,66.3,35,66.7,35.6,66.7z M36.6,58.5H42  v6.3h-5.4V58.5z"/><path d="M59,51.5h7.4c0.6,0,1-0.4,1-1v-8.3c0-0.6-0.4-1-1-1H59c-0.6,0-1,0.4-1,1v8.3C58,51.1,58.5,51.5,59,51.5z M60,43.2h5.4v6.3  H60V43.2z"/><path d="M74.5,51.5h7.4c0.6,0,1-0.4,1-1v-8.3c0-0.6-0.4-1-1-1h-7.4c-0.6,0-1,0.4-1,1v8.3C73.5,51.1,73.9,51.5,74.5,51.5z M75.5,43.2  h5.4v6.3h-5.4V43.2z"/><path d="M59,66.7h7.4c0.6,0,1-0.4,1-1v-8.3c0-0.6-0.4-1-1-1H59c-0.6,0-1,0.4-1,1v8.3C58,66.3,58.5,66.7,59,66.7z M60,58.5h5.4v6.3  H60V58.5z"/><path d="M74.5,66.7h7.4c0.6,0,1-0.4,1-1v-8.3c0-0.6-0.4-1-1-1h-7.4c-0.6,0-1,0.4-1,1v8.3C73.5,66.3,73.9,66.7,74.5,66.7z M75.5,58.5  h5.4v6.3h-5.4V58.5z"/><text x="0" y="115" fill="#000000" font-size="5px" font-weight="bold" font-family="'Helvetica Neue', Helvetica, Arial-Unicode, Arial, Sans-serif">Created by Made</text><text x="0" y="120" fill="#000000" font-size="5px" font-weight="bold" font-family="'Helvetica Neue', Helvetica, Arial-Unicode, Arial, Sans-serif">from the Noun Project</text></svg>