<svg xmlns="http://www.w3.org/2000/svg" xmlns:xlink="http://www.w3.org/1999/xlink" version="1.1" x="0px" y="0px" viewBox="0 0 100 125" enable-background="new 0 0 100 100" xml:space="preserve"><g><g><g><path d="M94.043,19.193v1.505c0,0.838-0.677,1.505-1.505,1.505H71.457h-1.565h-0.919v2.303c0,0.829-0.677,1.505-1.506,1.505     L56.77,26.729c0.223-0.889,0.243-1.818,0.051-2.717c-0.111-0.515-0.303-1.01-0.545-1.485c-0.283-0.545-0.627-1.071-1.081-1.525     c-1.151-1.151-2.677-1.788-4.293-1.788c-0.232,0-0.455,0.01-0.677,0.041l-0.202-1.465c0.414-0.061,0.757-0.101,0.778-0.101     c0,0,0.737-0.02,0.767-0.02c0.051,0,16.729,0.02,16.738,0.02h24.232C93.366,17.688,94.043,18.365,94.043,19.193z"/><path d="M66.417,27.456L50.608,40.688c-0.849,0.637-1.838,0.93-2.818,0.95c-0.273,0.071-0.556,0.101-0.838,0.131     c-0.061,0-0.121,0-0.182,0.01c-0.061,0-0.122,0.01-0.182,0.01c-0.222,0-0.444-0.02-0.667-0.05c-0.03,0-0.051-0.01-0.081-0.021     c-0.252-0.04-0.505-0.101-0.757-0.192c-0.071-0.02-0.142-0.04-0.212-0.07c-0.272-0.111-0.545-0.232-0.808-0.394l-0.212-0.131     l11.344-11.344c0.384-0.394,0.687-0.838,0.949-1.293l9.697-0.768C66.043,27.526,66.234,27.496,66.417,27.456z"/><path d="M55.437,25.051c0.03,0.606-0.061,1.212-0.263,1.788c-0.212,0.576-0.535,1.121-0.979,1.586     c-0.03,0.03-0.051,0.061-0.071,0.091L39.224,43.416c-0.889,0.889-2.061,1.333-3.222,1.333c-1.172,0-2.333-0.445-3.222-1.333     c-0.01-0.01-0.01-0.01-0.021-0.02l-0.01-0.01L21.365,32.001l-1.121-1.121l-2.394-2.394c-1.778-1.778-1.778-4.667,0-6.444     c0.202-0.202,0.414-0.374,0.636-0.525c0.051-0.03,0.091-0.061,0.142-0.091c0.202-0.131,0.414-0.243,0.636-0.344     c0.081-0.03,0.162-0.061,0.252-0.091c0.152-0.061,0.313-0.101,0.475-0.141c0.171-0.041,0.333-0.071,0.505-0.091     c0.101-0.01,0.202-0.02,0.293-0.03c0.101,0,0.192-0.02,0.283-0.02c0.222,0,0.435,0.03,0.646,0.061     c0.495,0.071,0.959,0.222,1.414,0.455c0.03,0.01,0.061,0.03,0.091,0.041c0.384,0.212,0.747,0.455,1.07,0.778l0.071,0.061     l6.939,6.939l1.293,1.293l3.404,3.404l5.051-5.051l1.596-1.586l5.03-5.03c0.889-0.889,2.051-1.344,3.223-1.344     c1.161,0,2.333,0.455,3.222,1.344c0.404,0.404,0.707,0.879,0.93,1.374C55.285,23.96,55.406,24.506,55.437,25.051z"/><path d="M50.022,17.789l0.202,1.465c-1.131,0.121-2.182,0.565-3.081,1.273c-0.192,0.141-0.374,0.303-0.545,0.475l-3.152,3.151     l-2.121,2.122l-1.01,1.01l-0.081,0.081l-0.081-0.051l-7.061,1.384l-7.545-7.546v-0.01l-0.182-0.172     c-0.171-0.172-0.354-0.333-0.535-0.475c0.041,0,0.071-0.01,0.111-0.01h3.415h4.202l14.111-2.202l1.748-0.283     C48.417,18.001,49.325,17.88,50.022,17.789z"/><path d="M36.84,2.869c5.99,0.01,10.849,4.879,10.838,10.869c0,0.384-0.02,0.748-0.061,1.111c-0.02,0.162-0.05,0.303-0.071,0.455     c-0.03,0.212-0.05,0.424-0.101,0.626c-0.03,0.192-0.091,0.364-0.142,0.556c-0.01,0.05-0.02,0.111-0.041,0.171l-14.829,2.313     h-5.101c-0.878-1.566-1.374-3.354-1.374-5.263c0-0.374,0.02-0.748,0.061-1.111c0-0.01,0-0.02,0-0.041     c0.041-0.343,0.091-0.697,0.162-1.04c0.03-0.122,0.061-0.232,0.091-0.354c0.061-0.223,0.111-0.455,0.182-0.677     c0.04-0.141,0.101-0.283,0.151-0.414c0.071-0.202,0.131-0.394,0.212-0.586c0.061-0.141,0.131-0.262,0.192-0.394     c0.091-0.192,0.172-0.374,0.263-0.556c0.071-0.131,0.151-0.243,0.232-0.374c0.101-0.171,0.202-0.354,0.313-0.515     c0.081-0.121,0.172-0.222,0.252-0.333c0.122-0.172,0.243-0.344,0.374-0.505c0.091-0.101,0.182-0.202,0.272-0.293     c0.142-0.162,0.283-0.323,0.435-0.475c0.091-0.101,0.202-0.182,0.293-0.272c0.162-0.142,0.313-0.293,0.475-0.435     c0.111-0.081,0.222-0.162,0.333-0.243c0.172-0.131,0.333-0.262,0.505-0.374c0.122-0.081,0.243-0.151,0.374-0.232     c0.171-0.101,0.798-0.444,0.939-0.515c0.171-0.081,0.838-0.364,0.99-0.424c0.172-0.061,0.858-0.272,1.02-0.313     c0.192-0.05,0.374-0.111,0.556-0.142c0.172-0.04,0.344-0.061,0.515-0.081c0.192-0.03,0.374-0.071,0.566-0.091     c0.171-0.01,0.354-0.01,0.535-0.021c0.192-0.01,0.374-0.03,0.566-0.03C36.83,2.869,36.83,2.869,36.84,2.869z"/><path d="M43.497,69.981l-0.303,20.223c-0.04,2.949-2.464,5.304-5.414,5.263l-0.536-0.01c-2.939-0.041-5.293-2.465-5.252-5.414     l0.283-19.606l-4.576-9.162l0.424-3.192c3.151-0.191,6.151-1.626,8.525-3.989l6.232,12.484c0.424,0.849,0.606,1.859,0.565,2.879     C43.467,69.628,43.497,69.8,43.497,69.981z"/><path d="M41.406,43.375l-3.223,6.101c-0.141,0.283-0.303,0.556-0.464,0.818c-0.061,0.101-0.121,0.182-0.172,0.272     c-0.111,0.172-0.222,0.344-0.333,0.515c-0.07,0.102-0.151,0.202-0.232,0.304c-0.101,0.141-0.202,0.293-0.313,0.424     c-0.091,0.111-0.171,0.212-0.263,0.313c-0.101,0.121-0.212,0.252-0.323,0.373c-0.05,0.061-0.101,0.111-0.151,0.172     c-0.041,0.041-0.081,0.081-0.121,0.121c-0.121,0.121-0.232,0.243-0.343,0.354c-0.101,0.091-0.202,0.183-0.293,0.273     c-0.122,0.11-0.232,0.212-0.354,0.313c-0.101,0.091-0.212,0.172-0.313,0.263c-0.121,0.091-0.242,0.192-0.364,0.283     c-0.111,0.081-0.222,0.161-0.333,0.232c-0.121,0.091-0.243,0.172-0.374,0.252c-0.111,0.071-0.222,0.142-0.343,0.213     c-0.131,0.08-0.252,0.151-0.384,0.222c-0.121,0.061-0.232,0.121-0.354,0.192c-0.131,0.061-0.263,0.121-0.404,0.182     c-0.121,0.061-0.242,0.111-0.363,0.161c-0.131,0.061-0.273,0.111-0.404,0.162c-0.121,0.051-0.252,0.091-0.374,0.131     c-0.142,0.051-0.283,0.091-0.414,0.132c-0.131,0.04-0.263,0.07-0.384,0.101c-0.141,0.041-0.283,0.071-0.424,0.102     c-0.131,0.02-0.263,0.05-0.394,0.07c-0.142,0.03-0.283,0.051-0.435,0.061c-0.121,0.021-0.252,0.04-0.384,0.051     c-0.151,0.01-0.293,0.02-0.444,0.03c-0.131,0-0.263,0.01-0.394,0.01c-0.041,0-0.081,0.011-0.121,0.011     c-0.212,0-0.414-0.011-0.616-0.021l-0.303,2.283l-4.525,34.354c-0.04,0.354-0.121,0.697-0.222,1.03     c-0.041,0.102-0.091,0.202-0.131,0.313c-0.081,0.212-0.162,0.414-0.272,0.616c-0.061,0.121-0.142,0.222-0.212,0.333     c-0.111,0.162-0.222,0.334-0.343,0.495c-0.091,0.101-0.192,0.202-0.293,0.303c-0.131,0.132-0.263,0.273-0.404,0.395     c-0.111,0.091-0.232,0.172-0.344,0.252c-0.162,0.111-0.313,0.213-0.475,0.304c-0.131,0.08-0.263,0.141-0.394,0.201     c-0.162,0.071-0.333,0.142-0.515,0.202c-0.142,0.051-0.283,0.091-0.424,0.121c-0.182,0.051-0.374,0.081-0.556,0.111     c-0.151,0.021-0.303,0.03-0.455,0.041c-0.091,0-0.171,0.02-0.262,0.02c-0.192,0-0.404-0.01-0.606-0.03l-0.525-0.061     c-2.93-0.333-5.041-2.97-4.708-5.898l5.091-38.729c0.131-1.142-2.384-8.475,1.889-14.495l2.818-5.323l8.939,8.939l2.394,2.374     c1.111,0.99,2.536,1.545,4.041,1.545c1.616,0,3.142-0.637,4.293-1.778L41.406,43.375z"/><polygon points="38.396,29.203 36.002,31.597 34.386,29.991    "/></g></g></g><text x="0" y="115" fill="#000000" font-size="5px" font-weight="bold" font-family="'Helvetica Neue', Helvetica, Arial-Unicode, Arial, Sans-serif">Created by mungang kim</text><text x="0" y="120" fill="#000000" font-size="5px" font-weight="bold" font-family="'Helvetica Neue', Helvetica, Arial-Unicode, Arial, Sans-serif">from the Noun Project</text></svg>