<svg xmlns="http://www.w3.org/2000/svg" xmlns:xlink="http://www.w3.org/1999/xlink" version="1.1" x="0px" y="0px" viewBox="0 0 400.11 442.68500000000006" style="enable-background:new 0 0 400.11 354.148;" xml:space="preserve"><g><path d="M8.576,158.911c-0.459,0.404-0.627,1.04-0.427,1.62c0.2,0.578,0.727,0.973,1.339,1.005l14.586,0.769   c0.027,0.002,0.053,0.002,0.08,0.002c0.792,0,1.454-0.62,1.496-1.42c0.044-0.827-0.591-1.532-1.417-1.576l-10.91-0.578l8.353-7.338   c0.344-0.305,0.534-0.753,0.506-1.214c-0.026-0.458-0.265-0.886-0.645-1.147L5.967,138.286l14.837-0.807   c0.51-0.027,0.969-0.31,1.222-0.755c0.253-0.443,0.263-0.982,0.028-1.436l-7.918-15.166l14.507,6.002   c0.453,0.188,0.969,0.143,1.382-0.123c0.415-0.267,0.67-0.718,0.69-1.209l0.637-17.218l9.973,14.736   c0.285,0.421,0.765,0.67,1.271,0.66c0.506-0.01,0.977-0.279,1.246-0.708l7.145-11.509l1.891,11.43   c0.134,0.817,0.906,1.371,1.724,1.236c0.817-0.135,1.371-0.908,1.236-1.725h-0.002l-2.539-15.365   c-0.101-0.617-0.573-1.104-1.187-1.226c-0.613-0.123-1.238,0.148-1.566,0.681l-8.031,12.929l-11.246-16.619   c-0.364-0.538-1.032-0.781-1.655-0.601c-0.623,0.178-1.062,0.738-1.086,1.386l-0.729,19.648l-16.326-6.755   c-0.583-0.241-1.256-0.091-1.681,0.373c-0.425,0.463-0.514,1.147-0.223,1.707l8.748,16.755l-16.896,0.919   c-0.643,0.034-1.187,0.471-1.362,1.09c-0.174,0.619,0.063,1.277,0.593,1.643l17.6,12.148L8.576,158.911z"/><ellipse transform="matrix(0.9291 -0.3698 0.3698 0.9291 -56.2733 36.9894)" cx="68.357" cy="165.294" rx="22.495" ry="22.496"/><path d="M83.201,123.565c13.31,8.086,21.614,15.423,26.352,21.511c4.752,6.131,5.99,10.73,6.014,14.4   c-0.007,2.914-0.827,5.521-2.268,8.086c-2.136,3.818-5.802,7.289-8.977,9.629c-1.579,1.174-3.016,2.08-4.018,2.67   c-0.464,0.273-0.823,0.469-1.071,0.604c-0.608,0.223-1.2,0.518-1.757,0.904l-31.724,22.055c-0.529,0.367-0.99,0.795-1.396,1.258   c-1.426,1.178-5.117,4.115-9.383,6.805c-2.456,1.555-5.107,3.018-7.474,4.006c-2.353,1.012-4.437,1.453-5.361,1.422   c-0.165,0-0.293-0.01-0.383-0.02c-0.092-0.168-0.239-0.496-0.39-1.061c-0.234-0.881-0.441-2.314-0.439-4.305   c-0.002-2.809,0.406-6.705,1.434-11.686c0.89-4.33-1.897-8.559-6.225-9.447c-4.33-0.891-8.559,1.895-9.448,6.225   c-1.178,5.746-1.757,10.619-1.76,14.908c0.025,5.98,1.074,11.141,4.321,15.375c1.607,2.076,3.787,3.723,6.083,4.685   c2.3,0.979,4.641,1.324,6.807,1.324c4.534-0.037,8.504-1.355,12.254-2.969c5.485-2.438,10.625-5.768,14.456-8.533l26.941,38.752   c-3.351,2.277-7.835,5.654-12.463,10.145c-4.476,4.367-9.104,9.807-12.767,16.52c-3.648,6.686-6.301,14.791-6.297,23.84   c-0.052,12.686,5.359,26.334,16.901,39.266c2.47,2.791,5.909,4.215,9.363,4.215c2.946,0,5.902-1.035,8.281-3.139   c5.17-4.576,5.649-12.476,1.075-17.646c-8.539-9.75-10.566-16.943-10.619-22.695c0.007-4.168,1.174-8.043,3.258-11.896   c3.086-5.744,8.379-11.072,12.953-14.703c2.275-1.822,4.343-3.24,5.784-4.164c0.721-0.463,1.284-0.801,1.64-1.01   c0.177-0.103,0.303-0.176,0.37-0.213c0.016-0.01,0.027-0.018,0.036-0.022c0.014-0.006,0.019-0.008,0.019-0.008l-0.001-0.004   c0.448-0.244,0.868-0.52,1.273-0.809c0.769,10.861,3.515,23.758,10.877,36.271c8.955,15.359,25.188,29.369,50.119,36.758   c1.199,0.359,2.41,0.531,3.601,0.531c5.375,0,10.341-3.494,11.968-8.906c1.987-6.611-1.763-13.58-8.372-15.568   c-19.821-6.063-29.761-15.502-35.788-25.525c-5.96-10.043-7.668-21.441-7.653-30.57c-0.002-4.668,0.436-8.682,0.857-11.434   c0.212-1.375,0.418-2.438,0.561-3.111c0.07-0.334,0.125-0.574,0.159-0.707c0.015-0.066,0.025-0.107,0.027-0.119   c0.557-2.15,0.511-4.313-0.02-6.318c-0.075-1.383-0.515-2.764-1.362-3.984l-27.337-53.953c1.863-1.295,3.98-2.918,6.148-4.891   c3.095-2.838,6.302-6.402,8.837-10.865c2.527-4.443,4.353-9.881,4.346-15.971c0.023-7.738-2.982-16.078-9.403-24.25   c-6.437-8.218-16.236-16.552-30.647-25.331c-3.775-2.297-8.696-1.097-10.991,2.679C78.227,116.346,79.425,121.269,83.201,123.565z"/><polygon points="219.972,243.713 221.48,245.027 235.049,256.864 222.315,223.374 235.24,218.46 233.571,218.084 200.338,210.594    201.673,214.105 192.321,217.661 198.007,232.616 207.36,229.06 215.069,249.336 218.658,245.221  "/><polygon points="151.558,76.827 153.121,78.076 173.148,94.064 163.677,69.155 281.912,24.198 307.677,91.961 189.443,136.918    180.529,113.476 168.934,128.002 174.487,142.605 165.134,146.161 170.821,161.116 180.173,157.56 193.594,192.857    199.683,165.845 199.966,164.594 195.129,151.874 313.363,106.917 334.864,163.463 239.784,199.615 235.96,216.573    235.562,218.337 258.433,209.641 261.016,198.181 261.455,196.231 263.406,196.669 281.701,200.794 340.55,178.418    366.316,246.181 248.081,291.137 245.321,283.879 225.945,306.093 229.459,315.335 238.812,311.779 251.964,346.37    266.919,340.683 253.767,306.092 372.002,261.137 385.154,295.726 400.11,290.04 386.957,255.45 396.311,251.894 390.624,236.939    381.271,240.495 355.505,172.732 364.859,169.175 359.172,154.22 349.819,157.776 328.319,101.23 337.672,97.673 331.986,82.718    322.632,86.275 296.867,18.512 306.22,14.955 300.534,0 133.682,63.442 139.369,78.398 148.721,74.841 150.148,78.595    150.311,78.391  "/><rect x="216.549" y="59.457" transform="matrix(0.9505 -0.3109 0.3109 0.9505 -13.1513 77.9022)" width="42.545" height="41.506"/><rect x="133.549" y="88.457" transform="matrix(0.6239 -0.7815 0.7815 0.6239 -27.1185 162.0724)" width="42.545" height="41.506"/><rect x="197.068" y="169.937" transform="matrix(0.2199 -0.9755 0.9755 0.2199 -16.6059 361.6534)" width="41.507" height="42.546"/><rect x="274.215" y="129.456" transform="matrix(0.8866 -0.4625 0.4625 0.8866 -35.9693 153.6977)" width="42.545" height="41.508"/><rect x="258.401" y="202.272" transform="matrix(0.2199 -0.9755 0.9755 0.2199 -0.3032 446.7098)" width="41.507" height="42.546"/><rect x="200.549" y="255.455" transform="matrix(0.6573 -0.7536 0.7536 0.6573 -132.1399 261.8119)" width="42.545" height="41.507"/><rect x="344.092" y="28.331" transform="matrix(0.9289 -0.3704 0.3704 0.9289 15.0135 139.3544)" width="52.605" height="4.5"/><rect x="338.889" y="52.684" transform="matrix(0.9289 -0.3703 0.3703 0.9289 4.7561 133.6395)" width="23.015" height="3.5"/><rect x="329.588" y="22.75" transform="matrix(0.9289 -0.3702 0.3702 0.9289 15.1692 128.0299)" width="23.015" height="3.5"/></g><text x="0" y="369.148" fill="#000000" font-size="5px" font-weight="bold" font-family="'Helvetica Neue', Helvetica, Arial-Unicode, Arial, Sans-serif">Created by Gan Khoon Lay</text><text x="0" y="374.148" fill="#000000" font-size="5px" font-weight="bold" font-family="'Helvetica Neue', Helvetica, Arial-Unicode, Arial, Sans-serif">from the Noun Project</text></svg>