<svg xmlns="http://www.w3.org/2000/svg" xmlns:xlink="http://www.w3.org/1999/xlink" version="1.1" x="0px" y="0px" viewBox="0 0 100 125" enable-background="new 0 0 100 100" xml:space="preserve"><g><path d="M80.1,33.9C84.3,41.3,80,56,65.6,67.8c-9.7,8-18.3,12-25.5,12c-4.2,0-7.9-1.4-11.3-4.2c-3.3-2.7-5-5.3-4.9-7.4   c0.1-1.6,1.3-3.2,3.6-4.7l0.6-0.4c2.5-1.6,4.9-3.1,7.1-3.1c1.2,0,3.1,0.4,5.3,3.6c1.6,2.3,3.5,4.4,6.5,4.4c3.1,0,7.1-2.3,13.2-7.7   c4.1-3.6,8.8-8.4,8.4-13.3c-0.2-2.6-1.8-4.9-4.8-6.9c-1.1-0.7-1.6-1.5-1.8-2.6c-0.3-2.1,1.2-5.1,4.2-8.6c2.4-2.8,4.1-4,5.5-4   C74.1,25.1,76.8,28,80.1,33.9z M36.9,46.3c8.6,0,15.6-5.6,15.6-12.6c0-1.4-0.3-2.8-0.8-4.1c-0.1-0.1-0.1-0.3,0-0.6   c0.3-0.8,2.7-2,4.4-2.8c-2.7-0.3-7.5-1-8.3-1.6c-2.9-2.2-6.7-3.5-10.8-3.5c-8.6,0-15.6,5.6-15.6,12.6S28.4,46.3,36.9,46.3z    M42.8,24.6h2.4v13.6h-2.4V24.6z M44,39.7c0.9,0,1.6,0.7,1.6,1.6s-0.7,1.6-1.6,1.6c-0.9,0-1.6-0.7-1.6-1.6S43.1,39.7,44,39.7z    M35.8,24.6h2.4v13.6h-2.4V24.6z M37,39.8c0.9,0,1.6,0.7,1.6,1.6s-0.7,1.6-1.6,1.6c-0.9,0-1.6-0.7-1.6-1.6S36.2,39.8,37,39.8z    M28.8,24.6h2.4v13.6h-2.4V24.6z M29.9,39.7c0.9,0,1.6,0.7,1.6,1.6s-0.7,1.6-1.6,1.6c-0.9,0-1.6-0.7-1.6-1.6S29.1,39.7,29.9,39.7z    M50.2,7.7c-23.5,0-42.6,19-42.6,42.5c0,23.5,19.1,42.5,42.6,42.5s42.6-19,42.6-42.5C92.8,26.8,73.7,7.7,50.2,7.7z M36.9,20.3   c4.2,0,8.2,1.3,11.3,3.7c0.6,0.4,5.3,1.2,9.5,1.6l1.7,0.2l-1.6,0.7c-2.4,1-5.1,2.4-5.4,2.9c0.6,1.4,0.9,2.9,0.9,4.4   c0,7.4-7.4,13.5-16.4,13.5s-16.4-6-16.4-13.5C20.5,26.3,27.9,20.3,36.9,20.3z M67.3,69.9C57,78.3,47.9,82.5,40.1,82.5   c-4.8,0-9.1-1.6-13-4.8c-4.1-3.3-6-6.6-5.8-9.6c0.2-2.6,1.8-4.8,4.9-6.8l0.6-0.4c2.7-1.7,5.5-3.5,8.5-3.5c2.8,0,5.3,1.6,7.5,4.7   c1.6,2.4,2.8,3.2,4.3,3.2c2.4,0,6-2.2,11.4-7c3.4-3,7.8-7.4,7.5-11.1c-0.1-1.8-1.3-3.4-3.6-4.8c-1.7-1.1-2.7-2.6-3-4.4   c-0.4-2.9,1.2-6.5,4.8-10.7c2.2-2.5,4.6-4.9,7.6-4.9c3.4,0,6.5,3,10.6,10.2c2.4,4.3,2.4,10.5,0,17C80.7,54.7,76.5,62.3,67.3,69.9z"/></g><text x="0" y="115" fill="#000000" font-size="5px" font-weight="bold" font-family="'Helvetica Neue', Helvetica, Arial-Unicode, Arial, Sans-serif">Created by Nikki Santilli</text><text x="0" y="120" fill="#000000" font-size="5px" font-weight="bold" font-family="'Helvetica Neue', Helvetica, Arial-Unicode, Arial, Sans-serif">from the Noun Project</text></svg>