<svg xmlns="http://www.w3.org/2000/svg" xmlns:xlink="http://www.w3.org/1999/xlink" version="1.1" x="0px" y="0px" viewBox="0 0 100 125" enable-background="new 0 0 100 100" xml:space="preserve"><g><g><path fill="#000000" d="M57,0v32.663C57,32.599,56.205,33,55.808,33h-2.326c-1.272,0-2.463,0.127-3.49,0.725    c-0.096-0.072-0.182-0.265-0.29-0.321L21.087,18.406c-0.447-0.233-0.952-0.308-1.47-0.227c-0.625-0.078-1.289-0.072-1.965,0.083    l-12.499,2.86c-2.511,0.575-4.173,2.657-3.716,4.652l7.462,32.53c0.035,0.154,0.103,0.292,0.16,0.437L5.425,71.363    c-0.142,0.493,0.036,1,0.125,1.5C5.102,73.604,5,74.435,5,75.316v19.11C5,97.504,8.012,100,10.5,100s5.5-2.496,5.5-5.573v-19.11    c0-0.323,0.092-0.639,0.023-0.946l4.361-14.912l0.825-0.182L40.707,94.54c1.489,2.695,4.888,3.673,7.581,2.183    c2.693-1.487,3.678-4.879,2.188-7.572L30.458,52.907c-0.033-0.061-0.078-0.108-0.115-0.167l-4.617-20.132l19.367,9.984    C45.594,42.853,46,42.885,47,42.755v9.57C47,56.173,49.635,59,53.481,59h2.326C56.205,59,57,59.262,57,59.198V100h8V0H57z     M55.808,55h-2.326C52.2,55,51,53.607,51,52.325v-12.79C51,38.253,52.2,37,53.481,37h2.326C56.233,37,57,37.333,57,37.533v16.794    C57,54.528,56.233,55,55.808,55z"/><circle fill="#000000" cx="8.399" cy="10.679" r="8.36"/></g></g><text x="0" y="115" fill="#000000" font-size="5px" font-weight="bold" font-family="'Helvetica Neue', Helvetica, Arial-Unicode, Arial, Sans-serif">Created by Rohan Gupta</text><text x="0" y="120" fill="#000000" font-size="5px" font-weight="bold" font-family="'Helvetica Neue', Helvetica, Arial-Unicode, Arial, Sans-serif">from the Noun Project</text></svg>