<svg xmlns="http://www.w3.org/2000/svg" xmlns:xlink="http://www.w3.org/1999/xlink" version="1.1" x="0px" y="0px" viewBox="0 0 100 125" style="enable-background:new 0 0 100 100;" xml:space="preserve"><path d="M79.2,5H20.7C12,5,4.9,12.1,4.9,20.7v0c0,4.5,1.9,8.6,4.9,11.4V93c0,1.1,0.9,2,2,2H88c1.1,0,2-0.9,2-2V32.2  c3-2.9,4.9-6.9,4.9-11.4v0C94.9,12.1,87.9,5,79.2,5z M85.8,27.9C84.6,29,84,30.6,84,32.3V87c0,1.1-0.9,2-2,2H17.9c-1.1,0-2-0.9-2-2  V32.2c0-1.7-0.7-3.3-2-4.4c-2.1-2-3.1-4.7-3-7.6C11.3,14.9,15.8,11,21,11c14.9,0,58.2,0,58.2,0c5.4,0,9.8,4.4,9.8,9.8  C88.9,23.5,87.8,26,85.8,27.9z"/><text x="0" y="115" fill="#000000" font-size="5px" font-weight="bold" font-family="'Helvetica Neue', Helvetica, Arial-Unicode, Arial, Sans-serif">Created by No More Heroes</text><text x="0" y="120" fill="#000000" font-size="5px" font-weight="bold" font-family="'Helvetica Neue', Helvetica, Arial-Unicode, Arial, Sans-serif">from the Noun Project</text></svg>