<svg xmlns="http://www.w3.org/2000/svg" xmlns:xlink="http://www.w3.org/1999/xlink" version="1.1" x="0px" y="0px" viewBox="0 0 100 125" style="enable-background:new 0 0 100 100;" xml:space="preserve"><path d="M79.3,5H20.8C12.1,5,5,12.1,5,20.7v0c0,4.5,1.9,8.6,4.9,11.4V93c0,1.1,0.9,2,2,2h76.1c1.1,0,2-0.9,2-2V32.2  c3-2.9,4.9-6.9,4.9-11.4v0C95,12.1,87.9,5,79.3,5z M85.9,27.9c-1.2,1.1-1.8,2.8-1.8,4.4V87c0,1.1-0.9,2-2,2H17.9c-1.1,0-2-0.9-2-2  V32.2c0-1.7-0.7-3.3-2-4.4c-2.1-2-3.1-4.7-3-7.6c0.3-5.2,4.9-9.1,10.1-9.1c14.9,0,58.2,0,58.2,0c5.4,0,9.8,4.4,9.8,9.8  C89,23.5,87.9,26,85.9,27.9z M17.6,22.5c-1.2,0-2.2,1-2.2,2.2c0,1.2,1,2.2,2.2,2.2c1.2,0,2.2-1,2.2-2.2  C19.8,23.5,18.8,22.5,17.6,22.5z M26.7,22.5c-1.2,0-2.2,1-2.2,2.2c0,1.2,1,2.2,2.2,2.2s2.2-1,2.2-2.2C28.9,23.5,27.9,22.5,26.7,22.5  z M35.8,22.5c-1.2,0-2.2,1-2.2,2.2c0,1.2,1,2.2,2.2,2.2c1.2,0,2.2-1,2.2-2.2C38,23.5,37.1,22.5,35.8,22.5z M45,22.5  c-1.2,0-2.2,1-2.2,2.2c0,1.2,1,2.2,2.2,2.2c1.2,0,2.2-1,2.2-2.2C47.2,23.5,46.2,22.5,45,22.5z M54.1,22.5c-1.2,0-2.2,1-2.2,2.2  c0,1.2,1,2.2,2.2,2.2c1.2,0,2.2-1,2.2-2.2C56.3,23.5,55.3,22.5,54.1,22.5z M63.2,22.5c-1.2,0-2.2,1-2.2,2.2c0,1.2,1,2.2,2.2,2.2  s2.2-1,2.2-2.2C65.4,23.5,64.4,22.5,63.2,22.5z M72.4,22.5c-1.2,0-2.2,1-2.2,2.2c0,1.2,1,2.2,2.2,2.2c1.2,0,2.2-1,2.2-2.2  C74.5,23.5,73.6,22.5,72.4,22.5z M81.5,22.5c-1.2,0-2.2,1-2.2,2.2c0,1.2,1,2.2,2.2,2.2c1.2,0,2.2-1,2.2-2.2  C83.7,23.5,82.7,22.5,81.5,22.5z M22,15.2c-1.2,0-2.2,1-2.2,2.2c0,1.2,1,2.2,2.2,2.2s2.2-1,2.2-2.2C24.2,16.1,23.2,15.2,22,15.2z   M31.1,15.2c-1.2,0-2.2,1-2.2,2.2c0,1.2,1,2.2,2.2,2.2c1.2,0,2.2-1,2.2-2.2C33.3,16.1,32.3,15.2,31.1,15.2z M40.2,15.2  c-1.2,0-2.2,1-2.2,2.2c0,1.2,1,2.2,2.2,2.2c1.2,0,2.2-1,2.2-2.2C42.4,16.1,41.5,15.2,40.2,15.2z M49.4,15.2c-1.2,0-2.2,1-2.2,2.2  c0,1.2,1,2.2,2.2,2.2c1.2,0,2.2-1,2.2-2.2C51.6,16.1,50.6,15.2,49.4,15.2z M58.5,15.2c-1.2,0-2.2,1-2.2,2.2c0,1.2,1,2.2,2.2,2.2  c1.2,0,2.2-1,2.2-2.2C60.7,16.1,59.7,15.2,58.5,15.2z M67.6,15.2c-1.2,0-2.2,1-2.2,2.2c0,1.2,1,2.2,2.2,2.2s2.2-1,2.2-2.2  C69.8,16.1,68.8,15.2,67.6,15.2z M76.8,15.2c-1.2,0-2.2,1-2.2,2.2c0,1.2,1,2.2,2.2,2.2c1.2,0,2.2-1,2.2-2.2  C78.9,16.1,78,15.2,76.8,15.2z M26.7,37.3c-1.2,0-2.2,1-2.2,2.2c0,1.2,1,2.2,2.2,2.2s2.2-1,2.2-2.2C28.9,38.3,27.9,37.3,26.7,37.3z   M35.8,37.3c-1.2,0-2.2,1-2.2,2.2c0,1.2,1,2.2,2.2,2.2c1.2,0,2.2-1,2.2-2.2C38,38.3,37.1,37.3,35.8,37.3z M45,37.3  c-1.2,0-2.2,1-2.2,2.2c0,1.2,1,2.2,2.2,2.2c1.2,0,2.2-1,2.2-2.2C47.2,38.3,46.2,37.3,45,37.3z M54.1,37.3c-1.2,0-2.2,1-2.2,2.2  c0,1.2,1,2.2,2.2,2.2c1.2,0,2.2-1,2.2-2.2C56.3,38.3,55.3,37.3,54.1,37.3z M63.2,37.3c-1.2,0-2.2,1-2.2,2.2c0,1.2,1,2.2,2.2,2.2  s2.2-1,2.2-2.2C65.4,38.3,64.4,37.3,63.2,37.3z M72.4,37.3c-1.2,0-2.2,1-2.2,2.2c0,1.2,1,2.2,2.2,2.2c1.2,0,2.2-1,2.2-2.2  C74.5,38.3,73.6,37.3,72.4,37.3z M22,29.9c-1.2,0-2.2,1-2.2,2.2c0,1.2,1,2.2,2.2,2.2s2.2-1,2.2-2.2C24.2,30.9,23.2,29.9,22,29.9z   M31.1,29.9c-1.2,0-2.2,1-2.2,2.2c0,1.2,1,2.2,2.2,2.2c1.2,0,2.2-1,2.2-2.2C33.3,30.9,32.3,29.9,31.1,29.9z M40.2,29.9  c-1.2,0-2.2,1-2.2,2.2c0,1.2,1,2.2,2.2,2.2c1.2,0,2.2-1,2.2-2.2C42.4,30.9,41.5,29.9,40.2,29.9z M49.4,29.9c-1.2,0-2.2,1-2.2,2.2  c0,1.2,1,2.2,2.2,2.2c1.2,0,2.2-1,2.2-2.2C51.6,30.9,50.6,29.9,49.4,29.9z M58.5,29.9c-1.2,0-2.2,1-2.2,2.2c0,1.2,1,2.2,2.2,2.2  c1.2,0,2.2-1,2.2-2.2C60.7,30.9,59.7,29.9,58.5,29.9z M67.6,29.9c-1.2,0-2.2,1-2.2,2.2c0,1.2,1,2.2,2.2,2.2s2.2-1,2.2-2.2  C69.8,30.9,68.8,29.9,67.6,29.9z M76.8,29.9c-1.2,0-2.2,1-2.2,2.2c0,1.2,1,2.2,2.2,2.2c1.2,0,2.2-1,2.2-2.2  C78.9,30.9,78,29.9,76.8,29.9z M26.7,52c-1.2,0-2.2,1-2.2,2.2c0,1.2,1,2.2,2.2,2.2s2.2-1,2.2-2.2C28.9,53,27.9,52,26.7,52z M35.8,52  c-1.2,0-2.2,1-2.2,2.2c0,1.2,1,2.2,2.2,2.2c1.2,0,2.2-1,2.2-2.2C38,53,37.1,52,35.8,52z M45,52c-1.2,0-2.2,1-2.2,2.2  c0,1.2,1,2.2,2.2,2.2c1.2,0,2.2-1,2.2-2.2C47.2,53,46.2,52,45,52z M54.1,52c-1.2,0-2.2,1-2.2,2.2c0,1.2,1,2.2,2.2,2.2  c1.2,0,2.2-1,2.2-2.2C56.3,53,55.3,52,54.1,52z M63.2,52C62,52,61,53,61,54.2c0,1.2,1,2.2,2.2,2.2s2.2-1,2.2-2.2  C65.4,53,64.4,52,63.2,52z M72.4,52c-1.2,0-2.2,1-2.2,2.2c0,1.2,1,2.2,2.2,2.2c1.2,0,2.2-1,2.2-2.2C74.5,53,73.6,52,72.4,52z   M22,44.7c-1.2,0-2.2,1-2.2,2.2s1,2.2,2.2,2.2s2.2-1,2.2-2.2S23.2,44.7,22,44.7z M31.1,44.7c-1.2,0-2.2,1-2.2,2.2s1,2.2,2.2,2.2  c1.2,0,2.2-1,2.2-2.2S32.3,44.7,31.1,44.7z M40.2,44.7c-1.2,0-2.2,1-2.2,2.2s1,2.2,2.2,2.2c1.2,0,2.2-1,2.2-2.2S41.5,44.7,40.2,44.7  z M49.4,44.7c-1.2,0-2.2,1-2.2,2.2s1,2.2,2.2,2.2c1.2,0,2.2-1,2.2-2.2S50.6,44.7,49.4,44.7z M58.5,44.7c-1.2,0-2.2,1-2.2,2.2  s1,2.2,2.2,2.2c1.2,0,2.2-1,2.2-2.2S59.7,44.7,58.5,44.7z M67.6,44.7c-1.2,0-2.2,1-2.2,2.2s1,2.2,2.2,2.2s2.2-1,2.2-2.2  S68.8,44.7,67.6,44.7z M76.8,44.7c-1.2,0-2.2,1-2.2,2.2s1,2.2,2.2,2.2c1.2,0,2.2-1,2.2-2.2S78,44.7,76.8,44.7z M26.7,66.8  c-1.2,0-2.2,1-2.2,2.2c0,1.2,1,2.2,2.2,2.2s2.2-1,2.2-2.2C28.9,67.7,27.9,66.8,26.7,66.8z M35.8,66.8c-1.2,0-2.2,1-2.2,2.2  c0,1.2,1,2.2,2.2,2.2c1.2,0,2.2-1,2.2-2.2C38,67.7,37.1,66.8,35.8,66.8z M45,66.8c-1.2,0-2.2,1-2.2,2.2c0,1.2,1,2.2,2.2,2.2  c1.2,0,2.2-1,2.2-2.2C47.2,67.7,46.2,66.8,45,66.8z M54.1,66.8c-1.2,0-2.2,1-2.2,2.2c0,1.2,1,2.2,2.2,2.2c1.2,0,2.2-1,2.2-2.2  C56.3,67.7,55.3,66.8,54.1,66.8z M63.2,66.8c-1.2,0-2.2,1-2.2,2.2c0,1.2,1,2.2,2.2,2.2s2.2-1,2.2-2.2C65.4,67.7,64.4,66.8,63.2,66.8  z M72.4,66.8c-1.2,0-2.2,1-2.2,2.2c0,1.2,1,2.2,2.2,2.2c1.2,0,2.2-1,2.2-2.2C74.5,67.7,73.6,66.8,72.4,66.8z M22,59.4  c-1.2,0-2.2,1-2.2,2.2c0,1.2,1,2.2,2.2,2.2s2.2-1,2.2-2.2C24.2,60.4,23.2,59.4,22,59.4z M31.1,59.4c-1.2,0-2.2,1-2.2,2.2  c0,1.2,1,2.2,2.2,2.2c1.2,0,2.2-1,2.2-2.2C33.3,60.4,32.3,59.4,31.1,59.4z M40.2,59.4c-1.2,0-2.2,1-2.2,2.2c0,1.2,1,2.2,2.2,2.2  c1.2,0,2.2-1,2.2-2.2C42.4,60.4,41.5,59.4,40.2,59.4z M49.4,59.4c-1.2,0-2.2,1-2.2,2.2c0,1.2,1,2.2,2.2,2.2c1.2,0,2.2-1,2.2-2.2  C51.6,60.4,50.6,59.4,49.4,59.4z M58.5,59.4c-1.2,0-2.2,1-2.2,2.2c0,1.2,1,2.2,2.2,2.2c1.2,0,2.2-1,2.2-2.2  C60.7,60.4,59.7,59.4,58.5,59.4z M67.6,59.4c-1.2,0-2.2,1-2.2,2.2c0,1.2,1,2.2,2.2,2.2s2.2-1,2.2-2.2C69.8,60.4,68.8,59.4,67.6,59.4  z M76.8,59.4c-1.2,0-2.2,1-2.2,2.2c0,1.2,1,2.2,2.2,2.2c1.2,0,2.2-1,2.2-2.2C78.9,60.4,78,59.4,76.8,59.4z M26.7,81.5  c-1.2,0-2.2,1-2.2,2.2s1,2.2,2.2,2.2s2.2-1,2.2-2.2S27.9,81.5,26.7,81.5z M35.8,81.5c-1.2,0-2.2,1-2.2,2.2s1,2.2,2.2,2.2  c1.2,0,2.2-1,2.2-2.2S37.1,81.5,35.8,81.5z M45,81.5c-1.2,0-2.2,1-2.2,2.2s1,2.2,2.2,2.2c1.2,0,2.2-1,2.2-2.2S46.2,81.5,45,81.5z   M54.1,81.5c-1.2,0-2.2,1-2.2,2.2s1,2.2,2.2,2.2c1.2,0,2.2-1,2.2-2.2S55.3,81.5,54.1,81.5z M63.2,81.5c-1.2,0-2.2,1-2.2,2.2  s1,2.2,2.2,2.2s2.2-1,2.2-2.2S64.4,81.5,63.2,81.5z M72.4,81.5c-1.2,0-2.2,1-2.2,2.2s1,2.2,2.2,2.2c1.2,0,2.2-1,2.2-2.2  S73.6,81.5,72.4,81.5z M22,74.1c-1.2,0-2.2,1-2.2,2.2c0,1.2,1,2.2,2.2,2.2s2.2-1,2.2-2.2C24.2,75.1,23.2,74.1,22,74.1z M31.1,74.1  c-1.2,0-2.2,1-2.2,2.2c0,1.2,1,2.2,2.2,2.2c1.2,0,2.2-1,2.2-2.2C33.3,75.1,32.3,74.1,31.1,74.1z M40.2,74.1c-1.2,0-2.2,1-2.2,2.2  c0,1.2,1,2.2,2.2,2.2c1.2,0,2.2-1,2.2-2.2C42.4,75.1,41.5,74.1,40.2,74.1z M49.4,74.1c-1.2,0-2.2,1-2.2,2.2c0,1.2,1,2.2,2.2,2.2  c1.2,0,2.2-1,2.2-2.2C51.6,75.1,50.6,74.1,49.4,74.1z M58.5,74.1c-1.2,0-2.2,1-2.2,2.2c0,1.2,1,2.2,2.2,2.2c1.2,0,2.2-1,2.2-2.2  C60.7,75.1,59.7,74.1,58.5,74.1z M67.6,74.1c-1.2,0-2.2,1-2.2,2.2c0,1.2,1,2.2,2.2,2.2s2.2-1,2.2-2.2C69.8,75.1,68.8,74.1,67.6,74.1  z M76.8,74.1c-1.2,0-2.2,1-2.2,2.2c0,1.2,1,2.2,2.2,2.2c1.2,0,2.2-1,2.2-2.2C78.9,75.1,78,74.1,76.8,74.1z"/><text x="0" y="115" fill="#000000" font-size="5px" font-weight="bold" font-family="'Helvetica Neue', Helvetica, Arial-Unicode, Arial, Sans-serif">Created by No More Heroes</text><text x="0" y="120" fill="#000000" font-size="5px" font-weight="bold" font-family="'Helvetica Neue', Helvetica, Arial-Unicode, Arial, Sans-serif">from the Noun Project</text></svg>