<svg xmlns:xlink="http://www.w3.org/1999/xlink" xmlns="http://www.w3.org/2000/svg" stroke-width="0.501" stroke-linejoin="bevel" fill-rule="evenodd" version="1.1" overflow="visible" viewBox="0 0 96 120" x="0px" y="0px"><g fill="none" stroke="black" font-family="Times New Roman" font-size="16" transform="scale(1 -1)"><g transform="translate(0 -96)"><g><path d="M 90.003,6 L 90.003,9.957 L 90.002,9.957 L 90.002,16.357 C 85.09,15.426 81.481,17.459 82.211,20.791 C 78.344,21.276 77.704,19.194 75.039,17.633 C 72.377,16.354 68.526,16.799 65.402,17.848 C 49.175,24.633 41.451,48.38 51.511,53.651 C 53.513,54.701 55.773,56.967 59.892,52.087 C 60.387,51.501 61.338,51.515 61.819,52.011 C 63.375,53.615 63.349,56.376 63.529,58.511 C 67.059,56.724 69.386,54.982 70.464,50.616 C 70.77,49.376 72.437,49.116 72.953,50.307 C 77.443,60.682 73.785,72.816 61.42,77.346 C 47.402,82.478 35.126,77.075 26.734,68.825 C 9.338,51.72 6.029,28.832 6.003,9.957 L 6.002,6 L 90.003,6 Z M 20.47,16.001 C 20.47,17.095 21.358,17.983 22.451,17.983 C 23.545,17.983 24.433,17.095 24.433,16.001 C 24.433,14.908 23.545,14.02 22.451,14.02 C 21.358,14.02 20.47,14.908 20.47,16.001 Z M 56.211,15.853 C 56.211,16.583 56.803,17.175 57.532,17.175 C 58.262,17.175 58.854,16.583 58.854,15.853 C 58.854,15.124 58.262,14.532 57.532,14.532 C 56.803,14.532 56.211,15.124 56.211,15.853 Z M 41.074,52.308 C 39.217,42.539 41.875,34.745 46.945,28.009 C 38.718,34.645 36.438,42.67 41.074,52.308 Z M 29.057,30.879 C 29.057,31.399 29.479,31.821 29.999,31.821 C 30.519,31.821 30.941,31.399 30.941,30.879 C 30.941,30.359 30.519,29.938 29.999,29.938 C 29.479,29.938 29.057,30.359 29.057,30.879 Z M 49.88,55.569 C 46.956,53.208 44.052,50.802 44.009,42.197 C 41.941,49.589 45.495,55.922 49.88,55.569 Z M 60.889,61.93 C 61.769,60.625 61.419,58.994 61.047,57.689 C 57.267,63.071 55.257,64.848 51.281,64.702 C 48.625,64.604 39.89,64.58 43.405,66.66 C 46.712,68.617 35.376,67.765 33.276,66.497 C 28.379,63.54 31.773,70.93 38.002,74.332 C 45.752,78.566 53.64,78.564 60.417,75.792 C 70.004,71.87 74.468,65.715 71.601,53.286 C 70.255,57.86 65.182,62.158 60.889,61.93 Z" stroke-linecap="round" stroke="none" stroke-width="0.75" fill="#000000" stroke-linejoin="round" marker-start="none" marker-end="none" stroke-miterlimit="79.8403193612775"/></g></g></g><text x="0" y="111" fill="#000000" font-size="5px" font-weight="bold" font-family="'Helvetica Neue', Helvetica, Arial-Unicode, Arial, Sans-serif">Created by Peter van Driel</text><text x="0" y="116" fill="#000000" font-size="5px" font-weight="bold" font-family="'Helvetica Neue', Helvetica, Arial-Unicode, Arial, Sans-serif">from the Noun Project</text></svg>