<svg xmlns:dc="http://purl.org/dc/elements/1.1/" xmlns:cc="http://creativecommons.org/ns#" xmlns:rdf="http://www.w3.org/1999/02/22-rdf-syntax-ns#" xmlns:svg="http://www.w3.org/2000/svg" xmlns="http://www.w3.org/2000/svg" xmlns:sodipodi="http://sodipodi.sourceforge.net/DTD/sodipodi-0.dtd" xmlns:inkscape="http://www.inkscape.org/namespaces/inkscape" viewBox="0 0 32 40" version="1.1" x="0px" y="0px"><g transform="translate(0,-1020.3622)"><path style="" d="m 17.51174,1022.3621 -12,12 24,0 -12,-12 z m 7,4 0,1.6875 2,1.9707 0,-3.6582 -2,0 z m -17,9 0,3.6172 c 0.057,0.1365 0.083,0.2839 0.0762,0.4316 -0.0319,0.6478 0.14821,1.2869 0.51172,1.8243 0.0138,0.02 0.0268,0.041 0.0391,0.062 l 0.0234,0.043 c 0.28496,0.495 0.0981,1.1278 -0.41016,1.3886 l -0.24023,0.1231 0,0.2304 c 0.5198,0.759 1.165,1.398 1.94141,1.9004 l 0.16601,-0.3222 c 0.2557,-0.4944 0.86584,-0.6849 1.35742,-0.4239 0.76591,0.4066 1.2423,0.5205 2.07813,0.5625 0.53158,0.027 0.94882,0.4658 0.94922,0.9981 l 0,3.5137 c 3.7e-4,0.016 3.7e-4,0.031 0,0.047 -1.9e-4,0.018 -8e-4,0.035 -0.002,0.053 l 0,0.012 c 0.0359,0.6843 -1.02055,0.8877 -1.41992,0.8398 -1.84179,-0.1003 -3.56719,-0.6446 -5.07031,-1.5234 l 0,1.623 8,0 0,-8.9805 4,0 0,8.9805 8,0 0,-15 -20,0 z m -4.51172,4 c 0.098,5.4812 4.52244,9.8993 10.00391,9.9883 l 0,-3.5508 c -0.93112,-0.047 -1.62496,-0.2172 -2.4961,-0.6797 l -0.68359,1.3262 -0.0156,-0.01 c -1.71187,-0.7996 -3.08616,-2.1786 -3.87696,-3.8945 l -0.004,0 1.36914,-0.7012 -0.0254,-0.043 c -0.48471,-0.7166 -0.72415,-1.5716 -0.68165,-2.4356 l -0.0566,0 -3.51367,0 -0.0195,0 z" fill="#000000" fill-rule="evenodd" stroke="none"/></g><text x="0" y="47" fill="#000000" font-size="5px" font-weight="bold" font-family="'Helvetica Neue', Helvetica, Arial-Unicode, Arial, Sans-serif">Created by Chameleon Design</text><text x="0" y="52" fill="#000000" font-size="5px" font-weight="bold" font-family="'Helvetica Neue', Helvetica, Arial-Unicode, Arial, Sans-serif">from the Noun Project</text></svg>