<svg xmlns:xlink="http://www.w3.org/1999/xlink" xmlns="http://www.w3.org/2000/svg" stroke-width="0.501" stroke-linejoin="bevel" fill-rule="evenodd" version="1.1" overflow="visible" viewBox="0 0 96 120" x="0px" y="0px"><g fill="none" stroke="black" font-family="Times New Roman" font-size="16" transform="scale(1 -1)"><g transform="translate(0 -96)"><g><g stroke-linejoin="round" stroke-linecap="round" stroke="none" stroke-width="0.75" fill="#000000" stroke-miterlimit="79.8403193612775"><path d="M 6,6 L 5.999,59.546 C 6.497,60.07 7.007,60.589 7.53,61.103 C 15.922,69.353 28.198,74.756 42.216,69.624 C 54.581,65.094 58.239,52.96 53.749,42.585 C 53.233,41.394 51.566,41.654 51.26,42.894 C 50.182,47.26 47.855,49.002 44.325,50.789 C 44.145,48.654 44.171,45.893 42.615,44.289 C 42.134,43.793 41.183,43.779 40.688,44.365 C 36.569,49.245 34.309,46.979 32.307,45.929 C 22.247,40.658 29.971,16.911 46.198,10.126 C 47.934,9.543 51.134,8.998 53.643,8.998 L 90,8.998 L 90,6 L 6,6 Z M 74.899,12.376 L 69.069,24.638 L 68.292,17.673 C 68.219,16.682 67.775,15.924 65.915,16.065 L 55.2,15.95 L 55.972,18.093 C 56.658,19.613 57.861,19.573 59.069,19.518 L 64.782,19.402 L 65.616,27.97 L 68.118,34.34 L 64.844,34.459 L 62.878,30.65 C 62.521,29.876 61.569,29.1 60.676,29.814 C 60.133,30.252 59.786,30.974 60.376,31.9 L 62.521,36.127 C 63.181,37.213 64.107,37.927 65.558,37.909 L 73.233,37.792 C 74.899,37.73 75.733,36.957 76.507,35.886 L 79.723,31.9 L 82.46,31.601 C 83.674,31.528 84.057,30.836 84.006,29.814 C 83.791,29.053 83.638,28.248 82.161,28.39 L 79.423,28.447 C 78.173,28.507 77.637,29.305 77.043,29.936 L 75.078,32.316 L 72.579,26.541 L 80.018,10.71 L 76.565,10.71 C 75.738,10.812 75.253,11.48 74.899,12.376 Z M 21.87,44.586 C 17.234,34.948 19.514,26.923 27.741,20.287 C 22.671,27.023 20.013,34.817 21.87,44.586 Z M 30.676,47.847 C 26.291,48.2 22.737,41.867 24.805,34.475 C 24.848,43.08 27.752,45.486 30.676,47.847 Z M 70.642,42.362 C 70.642,44.21 72.142,45.71 73.99,45.71 C 75.839,45.71 77.339,44.21 77.339,42.362 C 77.339,40.513 75.839,39.013 73.99,39.013 C 72.142,39.013 70.642,40.513 70.642,42.362 Z M 40.99,67.526 C 34.206,70.257 25.911,70.495 19.079,66.094 C 14.298,63.014 12.466,59.471 12.351,58.968 L 12.336,58.681 L 12.399,58.68 C 12.597,58.703 18.478,60.526 21.136,60.652 C 25.425,61.423 27.256,58.953 24.074,58.136 C 31.716,58.874 36.716,55.641 40.438,50.496 C 40.86,51.91 40.921,53.325 40.618,54.739 C 45.301,54.52 49.279,52.481 52.266,47.896 C 54.066,58.549 48.998,64.302 40.99,67.526 Z" marker-start="none" marker-end="none"/></g></g></g></g><text x="0" y="111" fill="#000000" font-size="5px" font-weight="bold" font-family="'Helvetica Neue', Helvetica, Arial-Unicode, Arial, Sans-serif">Created by Peter van Driel</text><text x="0" y="116" fill="#000000" font-size="5px" font-weight="bold" font-family="'Helvetica Neue', Helvetica, Arial-Unicode, Arial, Sans-serif">from the Noun Project</text></svg>