<svg xmlns="http://www.w3.org/2000/svg" xmlns:xlink="http://www.w3.org/1999/xlink" version="1.1" x="0px" y="0px" viewBox="0 0 100 125" enable-background="new 0 0 100 100" xml:space="preserve"><path d="M50,48.9c-8.7,0-15.8,7.1-15.8,15.8c0,8.7,7.1,15.8,15.8,15.8c8.7,0,15.8-7.1,15.8-15.8C65.8,56,58.7,48.9,50,48.9z   M51,68.3l-3.1,3.1l-3.1-3.1l-3-3l3.1-3.1l3,3l7.1-7l3.1,3.1L51,68.3z M67.3,40.4h-15h-4.5h-15v-4.9c0-1,0.4-2,1.2-2.6  c4.4-3.6,9.2-6,10.1-6.5c0.1-0.1,0.2-0.2,0.2-0.3v-3.4c-0.5-0.9-0.9-1.8-1-2.7c-0.4,0-0.9-0.6-1.4-2.4c-0.7-2.6,0-3,0.7-2.9  c-0.1-0.4-0.2-0.7-0.3-1.1h0c-0.2-1.2-0.3-2.3,0-3.4c0.3-1.4,1.1-2.6,2-3.5c0.5-0.6,1.2-1.1,1.8-1.5c0.5-0.4,1.1-0.7,1.8-0.9l0,0  c0.5-0.2,1-0.3,1.6-0.3c1.8-0.2,3.1,0.3,4.1,0.9c1.4,0.8,2,1.8,2,1.8s3.3,0.2,2.2,6.9c-0.1,0.4-0.2,0.7-0.3,1.1  c0.7-0.1,1.4,0.3,0.7,2.9c-0.5,1.9-1,2.4-1.4,2.4c-0.1,0.8-0.5,1.8-1,2.7v3.4c0,0.1,0.1,0.2,0.2,0.3c1,0.5,5.7,2.9,10.1,6.5  c0.8,0.6,1.2,1.6,1.2,2.6V40.4z M98,88.5c0.8,0.6,1.2,1.6,1.2,2.6V96h-15h-4.5h-15v-4.9c0-1,0.4-2,1.2-2.6c4.4-3.6,9.2-6,10.1-6.5  c0.1-0.1,0.2-0.2,0.2-0.3v-3.4c-0.5-0.9-0.9-1.8-1-2.7c-0.4,0-0.9-0.6-1.4-2.4c-0.7-2.6,0-3,0.7-2.9c-0.1-0.4-0.2-0.7-0.3-1.1h0  c-0.2-1.2-0.3-2.3,0-3.4c0.3-1.4,1.1-2.6,2-3.5c0.5-0.6,1.2-1.1,1.8-1.5c0.5-0.4,1.1-0.7,1.8-0.9l0,0c0.5-0.2,1-0.3,1.6-0.3  c1.8-0.2,3.1,0.3,4.1,0.9c1.4,0.8,2,1.8,2,1.8s3.3,0.2,2.2,6.9c-0.1,0.4-0.2,0.7-0.3,1.1c0.7-0.1,1.4,0.3,0.7,2.9  c-0.5,1.9-1,2.4-1.4,2.4c-0.1,0.8-0.5,1.8-1,2.7v3.4c0,0.1,0.1,0.2,0.2,0.3C88.9,82.5,93.6,84.9,98,88.5z M15.7,96h-15v-4.9  c0-1,0.4-2,1.2-2.6c4.4-3.6,9.2-6,10.1-6.5c0.1-0.1,0.2-0.2,0.2-0.3v-3.4c-0.5-0.9-0.9-1.8-1-2.7c-0.4,0-0.9-0.6-1.4-2.4  c-0.7-2.6,0-3,0.7-2.9c-0.1-0.4-0.2-0.7-0.3-1.1h0c-0.2-1.2-0.3-2.3,0-3.4c0.3-1.4,1.1-2.6,2-3.5c0.5-0.6,1.2-1.1,1.8-1.5  c0.5-0.4,1.1-0.7,1.8-0.9l0,0c0.5-0.2,1-0.3,1.6-0.3c1.8-0.2,3.1,0.3,4.1,0.9c1.4,0.8,2,1.8,2,1.8s3.3,0.2,2.2,6.9  c-0.1,0.4-0.2,0.7-0.3,1.1c0.7-0.1,1.4,0.3,0.7,2.9c-0.5,1.9-1,2.4-1.4,2.4c-0.1,0.8-0.5,1.8-1,2.7v3.4c0,0.1,0.1,0.2,0.2,0.3  c1,0.5,5.7,2.9,10.1,6.5c0.8,0.6,1.2,1.6,1.2,2.6V96h-15H15.7z"/><text x="0" y="115" fill="#000000" font-size="5px" font-weight="bold" font-family="'Helvetica Neue', Helvetica, Arial-Unicode, Arial, Sans-serif">Created by Gregor Cresnar</text><text x="0" y="120" fill="#000000" font-size="5px" font-weight="bold" font-family="'Helvetica Neue', Helvetica, Arial-Unicode, Arial, Sans-serif">from the Noun Project</text></svg>